<svg width="250" height="250" viewBox="-125 -125 250 250" xmlns="http://www.w3.org/2000/svg">
  <!-- Circle -->
  <circle cx="0" cy="0" r="90" fill="none" stroke="black" stroke-width="2"/>

  <!-- Tick marks and labels -->
  <g stroke="black" stroke-width="1" font-family="Arial" font-size="10" text-anchor="middle">
    <!-- Generate 24 ticks and labels -->
    <!-- Each tick is every 15 degrees -->
    <!-- Start from 0 at the bottom and rotate clockwise -->
    <!-- To rotate clockwise in SVG, use negative angles -->

    <!-- Repeat for each angle -->
    <!-- The text is placed slightly outside the circle at radius 100 -->
    <!-- Adjust dy to center the text vertically -->
    
    <!-- ((24 - time) * -15) -->

    <!-- Loop manually -->
    <!-- Angle = 0 -->
    <g transform="rotate(0)">
      <line x1="0" y1="90" x2="0" y2="85"/>
      <text x="0" y="105" dy="3">0</text>
    </g>
    <g transform="rotate(-15)">
      <line x1="0" y1="90" x2="0" y2="85"/>
      <text x="0" y="105" dy="3">23</text>
    </g>
    <g transform="rotate(-30)">
      <line x1="0" y1="90" x2="0" y2="85"/>
      <text x="0" y="105" dy="3">22</text>
    </g>
    <g transform="rotate(-45)">
      <line x1="0" y1="90" x2="0" y2="85"/>
      <text x="0" y="105" dy="3">21</text>
    </g>
    <g transform="rotate(-60)">
      <line x1="0" y1="90" x2="0" y2="85"/>
      <text x="0" y="105" dy="3">20</text>
    </g>
    <g transform="rotate(-75)">
      <line x1="0" y1="90" x2="0" y2="85"/>
      <text x="0" y="105" dy="3">19</text>
    </g>
    <g transform="rotate(-90)">
      <line x1="0" y1="90" x2="0" y2="85"/>
      <text x="0" y="105" dy="3">18</text>
    </g>
    <g transform="rotate(-105)">
      <line x1="0" y1="90" x2="0" y2="85"/>
      <text x="0" y="105" dy="3">17</text>
    </g>
    <g transform="rotate(-120)">
      <line x1="0" y1="90" x2="0" y2="85"/>
      <text x="0" y="105" dy="3">16</text>
    </g>
    <g transform="rotate(-135)">
      <line x1="0" y1="90" x2="0" y2="85"/>
      <text x="0" y="105" dy="3">15</text>
    </g>
    <g transform="rotate(-150)">
      <line x1="0" y1="90" x2="0" y2="85"/>
      <text x="0" y="105" dy="3">14</text>
    </g>
    <g transform="rotate(-165)">
      <line x1="0" y1="90" x2="0" y2="85"/>
      <text x="0" y="105" dy="3">13</text>
    </g>
    <g transform="rotate(-180)">
      <line x1="0" y1="90" x2="0" y2="85"/>
      <text x="0" y="105" dy="3">12</text>
    </g>
    <g transform="rotate(-195)">
      <line x1="0" y1="90" x2="0" y2="85"/>
      <text x="0" y="105" dy="3">11</text>
    </g>
    <g transform="rotate(-210)">
      <line x1="0" y1="90" x2="0" y2="85"/>
      <text x="0" y="105" dy="3">10</text>
    </g>
    <g transform="rotate(-225)">
      <line x1="0" y1="90" x2="0" y2="85"/>
      <text x="0" y="105" dy="3">09</text>
    </g>
    <g transform="rotate(-240)">
      <line x1="0" y1="90" x2="0" y2="85"/>
      <text x="0" y="105" dy="3">08</text>
    </g>
    <g transform="rotate(-255)">
      <line x1="0" y1="90" x2="0" y2="85"/>
      <text x="0" y="105" dy="3">07</text>
    </g>
    <g transform="rotate(-270)">
      <line x1="0" y1="90" x2="0" y2="85"/>
      <text x="0" y="105" dy="3">06</text>
    </g>
    <g transform="rotate(-285)">
      <line x1="0" y1="90" x2="0" y2="85"/>
      <text x="0" y="105" dy="3">05</text>
    </g>
    <g transform="rotate(-300)">
      <line x1="0" y1="90" x2="0" y2="85"/>
      <text x="0" y="105" dy="3">04</text>
    </g>
    <g transform="rotate(-315)">
      <line x1="0" y1="90" x2="0" y2="85"/>
      <text x="0" y="105" dy="3">03</text>
    </g>
    <g transform="rotate(-330)">
      <line x1="0" y1="90" x2="0" y2="85"/>
      <text x="0" y="105" dy="3">02</text>
    </g>
    <g transform="rotate(-345)">
      <line x1="0" y1="90" x2="0" y2="85"/>
      <text x="0" y="105" dy="3">01</text>
    </g>
  </g>
</svg>
