<?xml version='1.0' encoding='utf-8'?>
<svg xmlns="http://www.w3.org/2000/svg" version="1.1" width="600px" height="976px" viewBox="0 0 600 976">
<g style="fill:red; fill-opacity:0.9; stroke-linejoin: miter">
<path d="M430.15848,166.6855Q386.6377,169.94554,323.31036,206.68611Q300.98724,207.70108,253.6755,224.35773Q251.75737,222.34631,174.17792,238.81299L165.21967,237.225L108.73572,211.59595L71.604866,191.968L57.554462,179.73085Q52.29735,176.7588,44.861485,176.29799L10.75466,150.17213Q2.2165794,156.9957,-21.692348,188.06529L-25.279043,198.4242Q-25.275978,201.12048,-24.648752,201.39113Q-4.6144176,206.4186,9.018628,211.3401Q10.090036,213.20688,53.207222,229.5481L90.2361,251.40485L109.90494,265.14374L114.818954,282.1418Q119.960495,289.82837,131.02052,296.74866Q132.70732,300.69153,131.49599,300.48227L113.848724,315.2482L83.45144,344.08435Q82.00078,345.27707,82.36348,348.76385Q103.58006,347.82697,113.70119,350.33804Q138.76505,359.22903,151.22203,360.4832Q151.92126,377.4289,154.19759,386.23068Q161.44638,399.5592,161.04942,406.9452L177.69165,436.5931L190.97054,445.41568Q213.79489,468.6678,221.1207,472.56842Q224.24524,477.9173,224.33281,488.1708Q236.86368,512.64154,239.76364,526.1318L258.9525,621.0648Q257.21576,620.3932,258.72546,645.9333L260.42178,652.71466Q257.6245,667.88855,254.65999,674.08344L231.51416,700.0615Q229.74602,703.2711,230.85397,704.84033Q232.04254,707.1192,239.11201,700.7179L246.00536,699.83575L257.00955,691.1809Q263.74448,685.8723,270.8256,672.6379Q271.85223,669.63196,285.74792,700.77374L288.2106,702.57654Q295.254,715.2322,295.69095,719.73914Q297.65997,721.4381,302.5765,721.0767Q305.47455,731.54004,307.3556,730.40424Q311.38672,731.0925,311.60242,727.44586L305.4765,707.89825Q306.08286,706.5608,305.73938,703.0488Q297.97452,697.50977,296.71198,693.9248Q295.68506,684.14984,285.10574,671.27136Q284.94366,661.09985,282.7638,659.6669L291.5181,667.9354Q298.49634,670.3812,312.0172,672.1586L318.402,678.3229Q325.86053,681.6071,330.41757,677.70874Q334.16064,682.5487,339.67572,685.1731Q341.9499,684.3929,340.99054,681.8876Q339.95755,675.9923,333.52734,671.6231Q333.95905,668.5011,333.39188,668.2003L330.6411,668.93384L321.89307,663.0711L309.02667,660.81946Q299.07,652.94257,288.79108,650.39966Q287.06937,652.08264,279.02417,632.0174L272.04578,623.5196L262.95776,599.16974L248.1693,513.43585Q245.8795,504.43945,253.66997,491.5933Q251.68689,487.5219,268.26874,487.86688Q286.60504,491.09674,323.13556,489.98868L371.17554,551.1827Q385.13867,572.4992,379.96082,579.62897Q379.136,580.9896,371.6783,582.7021L350.31485,577.4367L335.51483,579.7813Q318.78638,586.41785,321.73587,595.9601L335.31705,590.2913L340.63943,592.9385L391.5405,597.47375Q396.1093,598.3556,396.75293,599.73206Q400.5418,608.12524,404.69165,611.2833L418.58722,620.9654Q420.92026,621.77026,421.87598,620.1823L422.96786,611.06714Q423.74686,610.61304,424.91965,610.70685Q441.47327,622.2876,449.75824,623.35315Q471.00006,623.58093,478.9921,628.83685L487.79712,627.2744Q499.8692,638.5299,500.86716,634.4267Q501.7166,625.64905,491.74734,617.63806L479.43457,613.1203L456.59503,612.2693Q454.39948,611.7417,452.95282,610.445Q451.36035,610.23004,454.98843,607.7358Q470.86444,607.7141,474.95673,602.6531L483.80554,603.50446Q486.10745,600.3635,482.85284,598.79395Q477.57025,595.54553,470.43796,595.2946Q442.83615,600.4701,437.45493,597.66504Q429.46765,597.5747,412.91287,582.9965L404.15955,568.40485Q385.78296,553.683,383.2499,548.45715L342.74356,498.78915Q338.65125,493.69366,337.72836,489.14014L394.9868,476.32535Q417.30078,466.943,449.31204,442.6563Q476.5583,414.9132,489.84314,385.9842L498.79343,360.5151L507.68024,315.66092L524.116,289.15674L525.6085,286.6642L526.7324,285.14175Q527.59644,281.9867,541.66327,276.34845L544.57434,277.43552Q551.72974,276.69336,578.4735,276.15732Q584.4576,276.9898,596.00073,276.27173Q590.6172,261.61804,552.20844,247.92639Q552.1484,247.10696,550.8809,247.36873Q552.2667,245.52092,549.76654,241.60208L547.4089,234.875L541.66766,215.06891L531.28864,204.45067Q525.8651,198.59087,523.5756,196.75087Q520.3804,194.49547,518.1913,191.94981Q515.7583,190.03748,512.92224,188.31525L501.0716,179.12755L477.75513,170.04974Q472.21143,169.54387,469.06836,168.05228L431.0907,166.75128L430.15848,166.6855 Z"/>
</g>
</svg>